<?xml version="1.0" encoding="UTF-8"?>
<svg id="Layer_1" xmlns="http://www.w3.org/2000/svg" xmlns:xlink="http://www.w3.org/1999/xlink" version="1.1" viewBox="0 0 350 151">
  <!-- Generator: Adobe Illustrator 29.5.1, SVG Export Plug-In . SVG Version: 2.1.0 Build 141)  -->
  <defs>
    <style>
      .st0 {
        fill: #ffd87c;
      }

      .st1 {
        mask: url(#mask);
      }

      .st2 {
        fill: #ffb699;
      }

      .st3 {
        fill: #cae7ca;
      }

      .st4 {
        fill: #f3e4c6;
      }

      .st5 {
        fill: #ffbd95;
      }
    </style>
    <mask id="mask" x="-5.12" y="-25.27" width="1948.65" height="176.27" maskUnits="userSpaceOnUse">
      <g id="mask0_2_202">
        <path class="st3" d="M34.73,140.72l-2.21-6.43H13.67l-2.21,6.57c-.86,2.56-1.6,4.3-2.21,5.21-.61.88-1.61,1.33-3.01,1.33-1.18,0-2.22-.48-3.13-1.43s-1.36-2.04-1.36-3.25c0-.7.11-1.42.32-2.17.21-.74.56-1.78,1.04-3.11l11.86-33.28c.34-.96.74-2.1,1.2-3.43.48-1.35.99-2.47,1.52-3.36.55-.88,1.25-1.6,2.12-2.13.89-.56,1.97-.84,3.26-.84s2.39.28,3.26.84c.89.54,1.59,1.23,2.12,2.1.55.86,1,1.79,1.36,2.8.38.98.85,2.3,1.42,3.95l12.12,33.07c.95,2.52,1.42,4.35,1.42,5.49s-.45,2.28-1.36,3.29c-.89.98-1.96,1.47-3.23,1.47-.74,0-1.37-.15-1.9-.45-.53-.28-.97-.66-1.33-1.15-.36-.51-.75-1.28-1.17-2.31-.4-1.05-.75-1.97-1.04-2.76ZM16.13,126.5h13.86l-6.99-21.15-6.86,21.15Z"/>
        <path class="st2" d="M158.23,130.66l-2.21-6.43h-18.85l-2.21,6.57c-.86,2.56-1.6,4.3-2.21,5.21-.61.88-1.61,1.33-3.01,1.33-1.18,0-2.22-.48-3.13-1.43-.91-.96-1.36-2.04-1.36-3.25,0-.7.11-1.42.32-2.17.21-.74.56-1.78,1.04-3.11l11.86-33.28c.34-.96.74-2.1,1.2-3.43.48-1.35.99-2.47,1.52-3.36.55-.88,1.25-1.6,2.12-2.13.89-.56,1.97-.84,3.26-.84s2.39.28,3.26.84c.89.54,1.59,1.23,2.12,2.1.55.86,1,1.79,1.36,2.8.38.98.85,2.3,1.42,3.95l12.11,33.07c.95,2.52,1.42,4.35,1.42,5.49s-.45,2.28-1.36,3.29-1.96,1.47-3.23,1.47c-.74,0-1.37-.15-1.9-.45-.53-.28-.97-.66-1.33-1.15-.36-.51-.75-1.28-1.17-2.31-.4-1.05-.75-1.97-1.04-2.76ZM139.63,116.43h13.85l-6.99-21.15-6.86,21.15Z"/>
        <path class="st2" d="M204.03,41.39h-14.17c-2.04,0-3.51-.5-4.4-1.5-.86-1.03-1.3-2.64-1.3-4.86V-3.5c0-2.26.44-3.88,1.33-4.86.91-1,2.36-1.5,4.36-1.5h15.03c2.21,0,4.13.15,5.76.45,1.62.3,3.08.89,4.36,1.75,1.1.72,2.07,1.64,2.91,2.76.84,1.1,1.49,2.32,1.93,3.67.44,1.33.66,2.74.66,4.23,0,5.13-2.32,8.88-6.96,11.26,6.09,2.14,9.14,6.31,9.14,12.51,0,2.87-.66,5.45-1.99,7.76-1.33,2.28-3.12,3.97-5.38,5.07-1.41.65-3.04,1.12-4.87,1.4-1.83.26-3.98.38-6.42.38ZM203.34,18.63h-9.77v14.96h10.09c6.35,0,9.52-2.53,9.52-7.58,0-2.59-.82-4.46-2.47-5.63-1.64-1.17-4.1-1.75-7.37-1.75ZM193.56-2.06v13.25h8.6c2.34,0,4.14-.24,5.41-.73,1.29-.49,2.27-1.42,2.94-2.8.53-.98.79-2.07.79-3.29,0-2.59-.83-4.3-2.5-5.14-1.67-.86-4.21-1.29-7.62-1.29h-7.62Z"/>
        <path class="st0" d="M278.94,131.99h-14.17c-2.04,0-3.51-.5-4.4-1.5-.86-1.02-1.3-2.64-1.3-4.86v-38.52c0-2.26.44-3.88,1.33-4.86s2.36-1.5,4.36-1.5h15.03c2.21,0,4.13.15,5.76.45,1.62.3,3.08.88,4.36,1.75,1.1.72,2.07,1.64,2.91,2.76.84,1.1,1.49,2.32,1.93,3.67.44,1.33.66,2.74.66,4.23,0,5.13-2.32,8.88-6.96,11.25,6.09,2.14,9.14,6.32,9.14,12.51,0,2.87-.66,5.45-1.99,7.76-1.33,2.28-3.12,3.97-5.38,5.07-1.41.65-3.04,1.12-4.87,1.4-1.83.26-3.98.38-6.42.38ZM278.24,109.23h-9.77v14.96h10.09c6.35,0,9.52-2.53,9.52-7.58,0-2.59-.82-4.46-2.47-5.63-1.64-1.17-4.1-1.75-7.37-1.75ZM268.47,88.54v13.25h8.6c2.34,0,4.14-.24,5.41-.73,1.29-.49,2.27-1.42,2.94-2.8.53-.98.79-2.07.79-3.29,0-2.59-.83-4.3-2.5-5.14-1.67-.86-4.21-1.29-7.62-1.29h-7.62Z"/>
        <path class="st3" d="M149.84,10.66c0,1.63-.37,3.4-1.11,5.31-.72,1.89-1.86,3.75-3.42,5.59-1.56,1.82-3.55,3.3-5.98,4.44-2.43,1.14-5.25,1.71-8.48,1.71-2.45,0-4.67-.26-6.67-.77-2-.51-3.83-1.3-5.47-2.38-1.62-1.1-3.12-2.53-4.49-4.3-1.22-1.61-2.27-3.4-3.13-5.38-.86-2-1.52-4.14-1.96-6.4-.42-2.26-.63-4.66-.63-7.2,0-4.12.54-7.82,1.61-11.08,1.1-3.26,2.66-6.05,4.68-8.35,2.02-2.33,4.4-4.1,7.12-5.31,2.72-1.21,5.62-1.82,8.7-1.82,3.75,0,7.1.83,10.03,2.48,2.93,1.65,5.18,3.71,6.74,6.15,1.56,2.42,2.34,4.72,2.34,6.89,0,1.19-.38,2.24-1.14,3.15-.76.91-1.68,1.36-2.75,1.36-1.2,0-2.11-.31-2.72-.94-.59-.63-1.26-1.71-1.99-3.25-1.22-2.54-2.67-4.44-4.33-5.7-1.64-1.26-3.68-1.89-6.1-1.89-3.86,0-6.94,1.62-9.24,4.86-2.28,3.24-3.42,7.84-3.42,13.81,0,3.98.51,7.31,1.52,9.96,1.01,2.63,2.45,4.6,4.3,5.91,1.86,1.3,4.03,1.96,6.52,1.96,2.7,0,4.98-.73,6.83-2.2,1.88-1.49,3.29-3.67,4.24-6.54.4-1.35.9-2.45,1.49-3.29.59-.86,1.54-1.29,2.85-1.29,1.12,0,2.08.43,2.88,1.29.8.86,1.2,1.93,1.2,3.22Z"/>
        <path class="st3" d="M340.15,33.03c0,1.63-.37,3.4-1.11,5.31-.72,1.89-1.86,3.75-3.42,5.59-1.56,1.82-3.55,3.3-5.98,4.44s-5.25,1.71-8.48,1.71c-2.45,0-4.67-.26-6.67-.77-2-.51-3.83-1.3-5.47-2.38-1.62-1.1-3.12-2.53-4.49-4.3-1.22-1.61-2.27-3.4-3.13-5.38-.86-2-1.52-4.14-1.96-6.4-.42-2.26-.63-4.66-.63-7.2,0-4.12.54-7.82,1.61-11.08,1.1-3.26,2.66-6.05,4.68-8.35,2.02-2.33,4.4-4.1,7.12-5.31,2.72-1.21,5.62-1.82,8.7-1.82,3.75,0,7.1.83,10.03,2.48,2.93,1.65,5.18,3.71,6.74,6.15,1.56,2.42,2.34,4.72,2.34,6.89,0,1.19-.38,2.24-1.14,3.15-.76.91-1.68,1.36-2.75,1.36-1.2,0-2.11-.31-2.72-.94-.59-.63-1.26-1.71-1.99-3.25-1.22-2.54-2.67-4.44-4.33-5.7-1.64-1.26-3.68-1.89-6.1-1.89-3.86,0-6.94,1.62-9.24,4.86-2.28,3.24-3.42,7.84-3.42,13.81,0,3.98.51,7.31,1.52,9.96,1.01,2.63,2.45,4.6,4.3,5.91,1.86,1.3,4.03,1.96,6.52,1.96,2.7,0,4.98-.73,6.83-2.2,1.88-1.49,3.29-3.67,4.24-6.54.4-1.35.9-2.45,1.49-3.29.59-.86,1.54-1.29,2.85-1.29,1.12,0,2.08.43,2.88,1.29.8.86,1.2,1.93,1.2,3.22Z"/>
        <path class="st3" d="M214.91,103.81l-2.21-6.43h-18.85l-2.21,6.57c-.86,2.56-1.6,4.3-2.21,5.21-.61.88-1.61,1.33-3.01,1.33-1.18,0-2.22-.48-3.13-1.43-.91-.96-1.36-2.04-1.36-3.25,0-.7.11-1.42.32-2.17.21-.74.56-1.78,1.04-3.11l11.86-33.28c.34-.96.74-2.1,1.2-3.43.48-1.35.99-2.47,1.52-3.36.55-.89,1.25-1.6,2.12-2.13.89-.56,1.97-.84,3.26-.84s2.39.28,3.26.84c.89.54,1.59,1.24,2.12,2.1.55.86,1,1.79,1.36,2.8.38.98.85,2.3,1.42,3.95l12.11,33.07c.95,2.52,1.42,4.35,1.42,5.49s-.45,2.28-1.36,3.29-1.96,1.47-3.23,1.47c-.74,0-1.37-.15-1.9-.45-.53-.28-.97-.66-1.33-1.15-.36-.51-.75-1.28-1.17-2.31-.4-1.05-.75-1.97-1.04-2.76ZM196.31,89.59h13.85l-6.99-21.15-6.86,21.15Z"/>
        <path class="st5" d="M14.74,41.39H.57c-2.05,0-3.51-.5-4.4-1.5-.86-1.03-1.3-2.64-1.3-4.86V-3.5c0-2.26.44-3.88,1.33-4.86.91-1,2.36-1.5,4.37-1.5h15.03c2.21,0,4.13.15,5.76.45,1.62.3,3.08.89,4.37,1.75,1.1.72,2.07,1.64,2.91,2.76.84,1.1,1.49,2.32,1.93,3.67.44,1.33.66,2.74.66,4.23,0,5.13-2.32,8.88-6.96,11.26,6.09,2.14,9.14,6.31,9.14,12.51,0,2.87-.66,5.45-1.99,7.76-1.33,2.28-3.12,3.97-5.38,5.07-1.41.65-3.04,1.12-4.87,1.4-1.83.26-3.98.38-6.42.38ZM14.05,18.63H4.27v14.96h10.09c6.35,0,9.52-2.53,9.52-7.58,0-2.59-.82-4.46-2.47-5.63-1.64-1.17-4.1-1.75-7.37-1.75ZM4.27-2.06v13.25h8.6c2.34,0,4.14-.24,5.41-.73,1.29-.49,2.27-1.42,2.94-2.8.53-.98.79-2.07.79-3.29,0-2.59-.83-4.3-2.5-5.14-1.67-.86-4.21-1.29-7.62-1.29h-7.62Z"/>
        <path class="st0" d="M92.68,88.36h-14.17c-2.05,0-3.51-.5-4.4-1.5-.86-1.02-1.3-2.64-1.3-4.86v-38.52c0-2.26.44-3.88,1.33-4.86s2.36-1.5,4.37-1.5h15.03c2.21,0,4.13.15,5.76.45,1.62.3,3.08.89,4.36,1.75,1.1.72,2.07,1.64,2.91,2.76.84,1.1,1.49,2.32,1.93,3.67.44,1.33.66,2.74.66,4.23,0,5.13-2.32,8.88-6.96,11.26,6.09,2.14,9.14,6.31,9.14,12.51,0,2.87-.66,5.45-1.99,7.76-1.33,2.28-3.12,3.97-5.38,5.07-1.41.65-3.04,1.12-4.87,1.4-1.83.26-3.98.38-6.42.38ZM91.99,65.61h-9.77v14.96h10.09c6.35,0,9.52-2.53,9.52-7.58,0-2.59-.82-4.46-2.47-5.63-1.64-1.17-4.1-1.75-7.37-1.75ZM82.21,44.92v13.25h8.6c2.34,0,4.14-.24,5.41-.73,1.29-.49,2.27-1.42,2.94-2.8.53-.98.79-2.07.79-3.29,0-2.59-.83-4.3-2.5-5.14-1.67-.86-4.21-1.29-7.62-1.29h-7.62Z"/>
      </g>
    </mask>
  </defs>
  <g class="st1">
    <path class="st4" d="M0,0h1943.52v128.63c0,12.36-9.06,22.37-20.25,22.37H20.25c-11.18,0-20.25-10.02-20.25-22.37V0Z"/>
  </g>
</svg>