<svg width="350" height="181" viewBox="0 0 350 181" fill="none" xmlns="http://www.w3.org/2000/svg">
<mask id="mask0_2_202" style="mask-type:alpha" maskUnits="userSpaceOnUse" x="4" y="14" width="343" height="155">
<path d="M44.3125 162.812L42.125 157.062H23.5L21.3125 162.938C20.4583 165.229 19.7292 166.781 19.125 167.594C18.5208 168.385 17.5312 168.781 16.1562 168.781C14.9896 168.781 13.9583 168.354 13.0625 167.5C12.1667 166.646 11.7188 165.677 11.7188 164.594C11.7188 163.969 11.8229 163.323 12.0312 162.656C12.2396 161.99 12.5833 161.062 13.0625 159.875L24.7812 130.125C25.1146 129.271 25.5104 128.25 25.9688 127.062C26.4479 125.854 26.9479 124.854 27.4688 124.062C28.0104 123.271 28.7083 122.635 29.5625 122.156C30.4375 121.656 31.5104 121.406 32.7812 121.406C34.0729 121.406 35.1458 121.656 36 122.156C36.875 122.635 37.5729 123.26 38.0938 124.031C38.6354 124.802 39.0833 125.635 39.4375 126.531C39.8125 127.406 40.2812 128.583 40.8438 130.062L52.8125 159.625C53.75 161.875 54.2188 163.51 54.2188 164.531C54.2188 165.594 53.7708 166.573 52.875 167.469C52 168.344 50.9375 168.781 49.6875 168.781C48.9583 168.781 48.3333 168.646 47.8125 168.375C47.2917 168.125 46.8542 167.781 46.5 167.344C46.1458 166.885 45.7604 166.198 45.3438 165.281C44.9479 164.344 44.6042 163.521 44.3125 162.812ZM25.9375 150.094H39.625L32.7188 131.188L25.9375 150.094Z" fill="#CAE7CA"/>
<path d="M166.312 153.812L164.125 148.062H145.5L143.312 153.938C142.458 156.229 141.729 157.781 141.125 158.594C140.521 159.385 139.531 159.781 138.156 159.781C136.99 159.781 135.958 159.354 135.062 158.5C134.167 157.646 133.719 156.677 133.719 155.594C133.719 154.969 133.823 154.323 134.031 153.656C134.24 152.99 134.583 152.062 135.062 150.875L146.781 121.125C147.115 120.271 147.51 119.25 147.969 118.062C148.448 116.854 148.948 115.854 149.469 115.062C150.01 114.271 150.708 113.635 151.562 113.156C152.438 112.656 153.51 112.406 154.781 112.406C156.073 112.406 157.146 112.656 158 113.156C158.875 113.635 159.573 114.26 160.094 115.031C160.635 115.802 161.083 116.635 161.438 117.531C161.812 118.406 162.281 119.583 162.844 121.062L174.812 150.625C175.75 152.875 176.219 154.51 176.219 155.531C176.219 156.594 175.771 157.573 174.875 158.469C174 159.344 172.938 159.781 171.688 159.781C170.958 159.781 170.333 159.646 169.812 159.375C169.292 159.125 168.854 158.781 168.5 158.344C168.146 157.885 167.76 157.198 167.344 156.281C166.948 155.344 166.604 154.521 166.312 153.812ZM147.938 141.094H161.625L154.719 122.188L147.938 141.094Z" fill="#FFB699"/>
<path d="M211.562 74H197.562C195.542 74 194.094 73.5521 193.219 72.6562C192.365 71.7396 191.938 70.2917 191.938 68.3125V33.875C191.938 31.8542 192.375 30.4062 193.25 29.5312C194.146 28.6354 195.583 28.1875 197.562 28.1875H212.406C214.594 28.1875 216.49 28.3229 218.094 28.5938C219.698 28.8646 221.135 29.3854 222.406 30.1562C223.49 30.8021 224.448 31.625 225.281 32.625C226.115 33.6042 226.75 34.6979 227.188 35.9062C227.625 37.0938 227.844 38.3542 227.844 39.6875C227.844 44.2708 225.552 47.625 220.969 49.75C226.99 51.6667 230 55.3958 230 60.9375C230 63.5 229.344 65.8125 228.031 67.875C226.719 69.9167 224.948 71.4271 222.719 72.4062C221.323 72.9896 219.719 73.4062 217.906 73.6562C216.094 73.8854 213.979 74 211.562 74ZM210.875 53.6562H201.219V67.0312H211.188C217.458 67.0312 220.594 64.7708 220.594 60.25C220.594 57.9375 219.781 56.2604 218.156 55.2188C216.531 54.1771 214.104 53.6562 210.875 53.6562ZM201.219 35.1562V47H209.719C212.031 47 213.812 46.7812 215.062 46.3438C216.333 45.9062 217.302 45.0729 217.969 43.8438C218.49 42.9688 218.75 41.9896 218.75 40.9062C218.75 38.5938 217.927 37.0625 216.281 36.3125C214.635 35.5417 212.125 35.1562 208.75 35.1562H201.219Z" fill="#FFB699"/>
<path d="M285.562 155H271.562C269.542 155 268.094 154.552 267.219 153.656C266.365 152.74 265.938 151.292 265.938 149.312V114.875C265.938 112.854 266.375 111.406 267.25 110.531C268.146 109.635 269.583 109.188 271.562 109.188H286.406C288.594 109.188 290.49 109.323 292.094 109.594C293.698 109.865 295.135 110.385 296.406 111.156C297.49 111.802 298.448 112.625 299.281 113.625C300.115 114.604 300.75 115.698 301.188 116.906C301.625 118.094 301.844 119.354 301.844 120.688C301.844 125.271 299.552 128.625 294.969 130.75C300.99 132.667 304 136.396 304 141.938C304 144.5 303.344 146.812 302.031 148.875C300.719 150.917 298.948 152.427 296.719 153.406C295.323 153.99 293.719 154.406 291.906 154.656C290.094 154.885 287.979 155 285.562 155ZM284.875 134.656H275.219V148.031H285.188C291.458 148.031 294.594 145.771 294.594 141.25C294.594 138.938 293.781 137.26 292.156 136.219C290.531 135.177 288.104 134.656 284.875 134.656ZM275.219 116.156V128H283.719C286.031 128 287.812 127.781 289.062 127.344C290.333 126.906 291.302 126.073 291.969 124.844C292.49 123.969 292.75 122.99 292.75 121.906C292.75 119.594 291.927 118.062 290.281 117.312C288.635 116.542 286.125 116.156 282.75 116.156H275.219Z" fill="#FFD87C"/>
<path d="M158.031 46.5312C158.031 47.9896 157.667 49.5729 156.938 51.2812C156.229 52.9688 155.104 54.6354 153.562 56.2812C152.021 57.9062 150.052 59.2292 147.656 60.25C145.26 61.2708 142.469 61.7812 139.281 61.7812C136.865 61.7812 134.667 61.5521 132.688 61.0938C130.708 60.6354 128.906 59.9271 127.281 58.9688C125.677 57.9896 124.198 56.7083 122.844 55.125C121.635 53.6875 120.604 52.0833 119.75 50.3125C118.896 48.5208 118.25 46.6146 117.812 44.5938C117.396 42.5729 117.188 40.4271 117.188 38.1562C117.188 34.4688 117.719 31.1667 118.781 28.25C119.865 25.3333 121.406 22.8438 123.406 20.7812C125.406 18.6979 127.75 17.1146 130.438 16.0312C133.125 14.9479 135.99 14.4062 139.031 14.4062C142.74 14.4062 146.042 15.1458 148.938 16.625C151.833 18.1042 154.052 19.9375 155.594 22.125C157.135 24.2917 157.906 26.3438 157.906 28.2812C157.906 29.3438 157.531 30.2812 156.781 31.0938C156.031 31.9062 155.125 32.3125 154.062 32.3125C152.875 32.3125 151.979 32.0312 151.375 31.4688C150.792 30.9062 150.135 29.9375 149.406 28.5625C148.198 26.2917 146.771 24.5938 145.125 23.4688C143.5 22.3438 141.49 21.7812 139.094 21.7812C135.281 21.7812 132.24 23.2292 129.969 26.125C127.719 29.0208 126.594 33.1354 126.594 38.4688C126.594 42.0312 127.094 45 128.094 47.375C129.094 49.7292 130.51 51.4896 132.344 52.6562C134.177 53.8229 136.323 54.4062 138.781 54.4062C141.448 54.4062 143.698 53.75 145.531 52.4375C147.385 51.1042 148.781 49.1562 149.719 46.5938C150.115 45.3854 150.604 44.4062 151.188 43.6562C151.771 42.8854 152.708 42.5 154 42.5C155.104 42.5 156.052 42.8854 156.844 43.6562C157.635 44.4271 158.031 45.3854 158.031 46.5312Z" fill="#CAE7CA"/>
<path d="M346.031 66.5312C346.031 67.9896 345.667 69.5729 344.938 71.2812C344.229 72.9688 343.104 74.6354 341.562 76.2812C340.021 77.9062 338.052 79.2292 335.656 80.25C333.26 81.2708 330.469 81.7812 327.281 81.7812C324.865 81.7812 322.667 81.5521 320.688 81.0938C318.708 80.6354 316.906 79.9271 315.281 78.9688C313.677 77.9896 312.198 76.7083 310.844 75.125C309.635 73.6875 308.604 72.0833 307.75 70.3125C306.896 68.5208 306.25 66.6146 305.812 64.5938C305.396 62.5729 305.188 60.4271 305.188 58.1562C305.188 54.4688 305.719 51.1667 306.781 48.25C307.865 45.3333 309.406 42.8438 311.406 40.7812C313.406 38.6979 315.75 37.1146 318.438 36.0312C321.125 34.9479 323.99 34.4062 327.031 34.4062C330.74 34.4062 334.042 35.1458 336.938 36.625C339.833 38.1042 342.052 39.9375 343.594 42.125C345.135 44.2917 345.906 46.3438 345.906 48.2812C345.906 49.3438 345.531 50.2812 344.781 51.0938C344.031 51.9062 343.125 52.3125 342.062 52.3125C340.875 52.3125 339.979 52.0312 339.375 51.4688C338.792 50.9062 338.135 49.9375 337.406 48.5625C336.198 46.2917 334.771 44.5938 333.125 43.4688C331.5 42.3438 329.49 41.7812 327.094 41.7812C323.281 41.7812 320.24 43.2292 317.969 46.125C315.719 49.0208 314.594 53.1354 314.594 58.4688C314.594 62.0312 315.094 65 316.094 67.375C317.094 69.7292 318.51 71.4896 320.344 72.6562C322.177 73.8229 324.323 74.4062 326.781 74.4062C329.448 74.4062 331.698 73.75 333.531 72.4375C335.385 71.1042 336.781 69.1562 337.719 66.5938C338.115 65.3854 338.604 64.4062 339.188 63.6562C339.771 62.8854 340.708 62.5 342 62.5C343.104 62.5 344.052 62.8854 344.844 63.6562C345.635 64.4271 346.031 65.3854 346.031 66.5312Z" fill="#CAE7CA"/>
<path d="M222.312 129.812L220.125 124.062H201.5L199.312 129.938C198.458 132.229 197.729 133.781 197.125 134.594C196.521 135.385 195.531 135.781 194.156 135.781C192.99 135.781 191.958 135.354 191.062 134.5C190.167 133.646 189.719 132.677 189.719 131.594C189.719 130.969 189.823 130.323 190.031 129.656C190.24 128.99 190.583 128.062 191.062 126.875L202.781 97.125C203.115 96.2708 203.51 95.25 203.969 94.0625C204.448 92.8542 204.948 91.8542 205.469 91.0625C206.01 90.2708 206.708 89.6354 207.562 89.1562C208.438 88.6562 209.51 88.4062 210.781 88.4062C212.073 88.4062 213.146 88.6562 214 89.1562C214.875 89.6354 215.573 90.2604 216.094 91.0312C216.635 91.8021 217.083 92.6354 217.438 93.5312C217.812 94.4062 218.281 95.5833 218.844 97.0625L230.812 126.625C231.75 128.875 232.219 130.51 232.219 131.531C232.219 132.594 231.771 133.573 230.875 134.469C230 135.344 228.938 135.781 227.688 135.781C226.958 135.781 226.333 135.646 225.812 135.375C225.292 135.125 224.854 134.781 224.5 134.344C224.146 133.885 223.76 133.198 223.344 132.281C222.948 131.344 222.604 130.521 222.312 129.812ZM203.938 117.094H217.625L210.719 98.1875L203.938 117.094Z" fill="#CAE7CA"/>
<path d="M24.5625 74H10.5625C8.54167 74 7.09375 73.5521 6.21875 72.6562C5.36458 71.7396 4.9375 70.2917 4.9375 68.3125V33.875C4.9375 31.8542 5.375 30.4062 6.25 29.5312C7.14583 28.6354 8.58333 28.1875 10.5625 28.1875H25.4062C27.5938 28.1875 29.4896 28.3229 31.0938 28.5938C32.6979 28.8646 34.1354 29.3854 35.4062 30.1562C36.4896 30.8021 37.4479 31.625 38.2812 32.625C39.1146 33.6042 39.75 34.6979 40.1875 35.9062C40.625 37.0938 40.8438 38.3542 40.8438 39.6875C40.8438 44.2708 38.5521 47.625 33.9688 49.75C39.9896 51.6667 43 55.3958 43 60.9375C43 63.5 42.3438 65.8125 41.0312 67.875C39.7188 69.9167 37.9479 71.4271 35.7188 72.4062C34.3229 72.9896 32.7188 73.4062 30.9062 73.6562C29.0938 73.8854 26.9792 74 24.5625 74ZM23.875 53.6562H14.2188V67.0312H24.1875C30.4583 67.0312 33.5938 64.7708 33.5938 60.25C33.5938 57.9375 32.7812 56.2604 31.1562 55.2188C29.5312 54.1771 27.1042 53.6562 23.875 53.6562ZM14.2188 35.1562V47H22.7188C25.0312 47 26.8125 46.7812 28.0625 46.3438C29.3333 45.9062 30.3021 45.0729 30.9688 43.8438C31.4896 42.9688 31.75 41.9896 31.75 40.9062C31.75 38.5938 30.9271 37.0625 29.2812 36.3125C27.6354 35.5417 25.125 35.1562 21.75 35.1562H14.2188Z" fill="#FFBD95"/>
<path d="M101.562 116H87.5625C85.5417 116 84.0938 115.552 83.2188 114.656C82.3646 113.74 81.9375 112.292 81.9375 110.312V75.875C81.9375 73.8542 82.375 72.4062 83.25 71.5312C84.1458 70.6354 85.5833 70.1875 87.5625 70.1875H102.406C104.594 70.1875 106.49 70.3229 108.094 70.5938C109.698 70.8646 111.135 71.3854 112.406 72.1562C113.49 72.8021 114.448 73.625 115.281 74.625C116.115 75.6042 116.75 76.6979 117.188 77.9062C117.625 79.0938 117.844 80.3542 117.844 81.6875C117.844 86.2708 115.552 89.625 110.969 91.75C116.99 93.6667 120 97.3958 120 102.938C120 105.5 119.344 107.812 118.031 109.875C116.719 111.917 114.948 113.427 112.719 114.406C111.323 114.99 109.719 115.406 107.906 115.656C106.094 115.885 103.979 116 101.562 116ZM100.875 95.6562H91.2188V109.031H101.188C107.458 109.031 110.594 106.771 110.594 102.25C110.594 99.9375 109.781 98.2604 108.156 97.2188C106.531 96.1771 104.104 95.6562 100.875 95.6562ZM91.2188 77.1562V89H99.7188C102.031 89 103.812 88.7812 105.062 88.3438C106.333 87.9062 107.302 87.0729 107.969 85.8438C108.49 84.9688 108.75 83.9896 108.75 82.9062C108.75 80.5938 107.927 79.0625 106.281 78.3125C104.635 77.5417 102.125 77.1562 98.75 77.1562H91.2188Z" fill="#FFD87C"/>
</mask>
<g mask="url(#mask0_2_202)">
<g filter="url(#filter0_d_2_202)">
<path d="M10 37H1930V152C1930 163.046 1921.05 172 1910 172H30C18.9543 172 10 163.046 10 152V37Z" fill="#F3E4C6"/>
</g>
</g>
<defs>
<filter id="filter0_d_2_202" x="-11.5" y="19.5" width="1963" height="178" filterUnits="userSpaceOnUse" color-interpolation-filters="sRGB">
<feFlood flood-opacity="0" result="BackgroundImageFix"/>
<feColorMatrix in="SourceAlpha" type="matrix" values="0 0 0 0 0 0 0 0 0 0 0 0 0 0 0 0 0 0 127 0" result="hardAlpha"/>
<feMorphology radius="9" operator="dilate" in="SourceAlpha" result="effect1_dropShadow_2_202"/>
<feOffset dy="4"/>
<feGaussianBlur stdDeviation="6.25"/>
<feComposite in2="hardAlpha" operator="out"/>
<feColorMatrix type="matrix" values="0 0 0 0 0 0 0 0 0 0 0 0 0 0 0 0 0 0 0.25 0"/>
<feBlend mode="normal" in2="BackgroundImageFix" result="effect1_dropShadow_2_202"/>
<feBlend mode="normal" in="SourceGraphic" in2="effect1_dropShadow_2_202" result="shape"/>
</filter>
</defs>
</svg>
